<svg xmlns="http://www.w3.org/2000/svg" viewBox="156.8 91.06 239.52 241.71"><g id="freepik--character-3--inject-17"><g id="freepik--character--inject-17"><path d="M360.58,152.79l-47.15-27.22a3.47,3.47,0,0,0-3.15-.06,1,1,0,0,0-.6.9c0,.29,0,1.4,0,1.72a1.19,1.19,0,0,0,.7.92l47.15,27.23,3.05-1.76Z" style="fill:#37474f"/><path d="M310.38,127.33a1.19,1.19,0,0,1-.7-.92,1,1,0,0,1,.6-.9,3.47,3.47,0,0,1,3.15.06l47.15,27.22-3.05,1.76Z" style="fill:#455a64"/><path d="M396.24,248.55,363.64,151l-6.1-3.52-3.05,1.76,30.65,91.62L357.54,225l-3.05,1.76v3.52l37.07,21.4a1.09,1.09,0,0,0,1.12,0l3.05-1.76A1.11,1.11,0,0,0,396.24,248.55Z" style="fill:#37474f"/><polygon points="396.24 248.55 392.84 238.59 389.5 228.61 382.81 208.65 376.25 188.65 366.86 161.05 363.64 151.03 367.04 160.99 376.48 188.57 383.17 208.53 389.74 228.53 393.02 238.53 396.24 248.55" style="fill:#263238"/><path d="M391.56,251.64l-13.47-7.78-23.6-13.62v-3.52l23.89,13.79,7.1,4.1a.48.48,0,0,0,.7-.57l-3.48-10.5-28.21-84.27,6.1,3.52,26.67,79.63,5.94,17.89A1.13,1.13,0,0,1,391.56,251.64Z" style="fill:#455a64"/><path d="M382.7,233.54l-11.14-33.31c-3.66-11.12-13.46-39.83-17.07-51,3.76,11.08,13.53,39.8,17.24,50.9Z" style="fill:#263238"/><path d="M391.56,251.64l-13.47-7.78a18.5,18.5,0,0,1,.29-3.35c.61-3.3,2.15-5.68,4.32-7a8.21,8.21,0,0,1,4.56-1.12l5.94,17.89A1.13,1.13,0,0,1,391.56,251.64Z" style="fill:#263238"/><path d="M385.47,234a1.73,1.73,0,0,1,.79,1.37c0,.5-.35.7-.79.45a1.74,1.74,0,0,1-.78-1.36C384.69,234,385,233.79,385.47,234Z" style="fill:#455a64"/><path d="M379.67,242a1.72,1.72,0,0,1,.79,1.36c0,.5-.35.71-.79.46a1.79,1.79,0,0,1-.79-1.37C378.88,241.91,379.24,241.71,379.67,242Z" style="fill:#455a64"/><path d="M295.27,191.5l-3-1.77a.8.8,0,0,0-.85-.06L288,191.59a1.14,1.14,0,0,0-.45,1v2.82l5.64,3.26,3.34-1.93V194A3.09,3.09,0,0,0,295.27,191.5Z" style="fill:#37474f"/><path d="M291.94,193.43l-3.06-1.77c-.71-.41-1.29,0-1.29,1v2.82l5.64,3.26V195.9A3.08,3.08,0,0,0,291.94,193.43Z" style="fill:#263238"/><path d="M291.75,193.67l-3-1.72a.8.8,0,0,0-.81-.06h0l-40.5,23.38h0a1.1,1.1,0,0,0-.44,1v.87l5.47,3.16L293,196.93v-.87A3,3,0,0,0,291.75,193.67Z" style="fill:#455a64"/><path d="M252.87,216l-3.05-1.76a.83.83,0,0,0-.85-.07l-3.33,1.93a1.13,1.13,0,0,0-.45,1v2.83l5.65,3.26,3.33-1.93v-2.83A3.1,3.1,0,0,0,252.87,216Z" style="fill:#37474f"/><path d="M249.54,217.9l-3.06-1.76c-.71-.42-1.29,0-1.29,1v2.83l5.65,3.26v-2.83A3.09,3.09,0,0,0,249.54,217.9Z" style="fill:#263238"/><polygon points="253.88 217.91 342.3 268.96 342.3 271.73 253.88 220.69 253.88 217.91" style="fill:#e0e0e0"/><polygon points="253.88 217.91 342.3 268.96 342.3 271.73 253.88 220.69 253.88 217.91" style="opacity:0.2"/><polygon points="293.01 195.33 253.88 217.91 342.3 268.96 381.43 246.38 293.01 195.33" style="fill:#e0e0e0"/><path d="M294.51,199.67l69.78,40c5.39,3.1,5.4,8.12,0,11.23l-14,8.11c-5.38,3.11-14.11,3.11-19.5,0l-69.52-40.14Z" style="fill:#455a64"/><polygon points="294.5 199.67 296.1 200.58 262.85 219.78 261.25 218.86 294.5 199.67" style="fill:#37474f"/><path d="M339.19,255.42a.23.23,0,0,1-.14,0L272,216.66a.29.29,0,0,1-.1-.39.28.28,0,0,1,.38-.1l67.08,38.73a.28.28,0,0,1,.1.38A.28.28,0,0,1,339.19,255.42Z" style="fill:#263238"/><path d="M345.28,251.9a.27.27,0,0,1-.14,0l-67.07-38.72a.29.29,0,0,1-.1-.39.28.28,0,0,1,.38-.1l67.07,38.73a.27.27,0,0,1,.11.38A.29.29,0,0,1,345.28,251.9Z" style="fill:#263238"/><path d="M351.38,248.38a.23.23,0,0,1-.14,0l-67.07-38.72a.28.28,0,0,1-.1-.39.28.28,0,0,1,.38-.1l67.07,38.73a.28.28,0,0,1,.11.38A.3.3,0,0,1,351.38,248.38Z" style="fill:#263238"/><path d="M357.48,244.86a.23.23,0,0,1-.14,0L290.27,206.1a.29.29,0,0,1-.11-.39.29.29,0,0,1,.39-.1l67.07,38.73a.28.28,0,0,1,.1.38A.27.27,0,0,1,357.48,244.86Z" style="fill:#263238"/><path id="freepik--shadow--inject-17" d="M296.34,228.41a55,55,0,0,1,11.27,6.64c3.9,3,7.41,6.51,11.61,9a36.93,36.93,0,0,0,18.27,5c3.61.09,7.58-.4,10.08-3a4.15,4.15,0,0,0,1.25-2.43,5,5,0,0,0-1.67-3.58c-4.9-5.36-12.06-7.93-19-10s-11-4.41-17.7-8.5c-2.86-1.76-5.66-3.63-8.55-5.29l-.07,0a44.74,44.74,0,0,0-4.39-2.45,35.49,35.49,0,0,0-7.71-2.58,16.14,16.14,0,0,0-8.05.37,3.69,3.69,0,0,0-1.76,1.08,3,3,0,0,0-.53,1.66,6.14,6.14,0,0,0,1,3.42,13,13,0,0,0,2.38,2.71C286.67,223.93,291.56,226.32,296.34,228.41Z" style="opacity:0.2"/><g id="freepik--character--inject-17"><g id="freepik--bottom--inject-17"><path d="M289,192.69a2.77,2.77,0,0,0-2.13,1.23,12.7,12.7,0,0,0-.52,3.64,10.83,10.83,0,0,1-1.7,6c-1.2,1.85-2.59,5.92-1.46,8.46s2.56,4.59,5.11,5,4.85-2.39,5.53-4.17Z" style="fill:#37474f"/><path d="M284.1,210.5a4.75,4.75,0,0,1-.19-1.41,8.5,8.5,0,0,1,.84-3.74,23.86,23.86,0,0,0,1.94-3.63,17.17,17.17,0,0,0,1-4.19,14.19,14.19,0,0,1,.47-3.5c1.23-3.31,4.86-3,6.92-3.34l7.39-5.34,2.77,9.91s-4,1.47-5.17,2.08c-1.54.82-3,2.78-3.9,4.18-1.18,1.78-2.64,3.63-2.65,5.85a17.38,17.38,0,0,0,.52,3.57,3.51,3.51,0,0,1,.11,1,3.46,3.46,0,0,1-1.71,2.16c-1.24.9-2.73,1.84-4.2,1.39a4.68,4.68,0,0,1-2-1.58A9.67,9.67,0,0,1,284.1,210.5Z" style="fill:#ffa8a7"/><path d="M293.87,208.11a8.53,8.53,0,0,1,1-3.93,31.83,31.83,0,0,1,3.06-4.52c.72-.7,1.37-.91,1.14-1.14a25.5,25.5,0,0,0-5.81-1.27c-1.4,0-1.58.83-2.32,1.46a6.41,6.41,0,0,0,1.15-3.13c0-1.13.47-4.18,2.39-4.68l.61-.21s.05-.46-.75-.27a23.26,23.26,0,0,0-4.46,1.31,4,4,0,0,0-2.35,3.29c-.28,2,0,2.71-.54,4.74a18.55,18.55,0,0,1-2.19,5.16,8.67,8.67,0,0,0-.93,6Z" style="fill:#455a64"/><path d="M336.16,153.1A102.74,102.74,0,0,1,333,176.36c-2.47,9.29-3.69,10.66-5.29,11.43-7.09,3.39-26.06,8.85-26.06,8.85s-4.06-4.08-3.12-8.64c5.6-4,14.75-10.95,19.15-10.67l-8.36-26.63Z" style="fill:#37474f"/><path d="M288.77,216.09a6.59,6.59,0,0,0,5.1-3.26c1.05-1.75,0-4,0-4.72-.14-.27-2-1-5.15-.53s-4.23,1.79-4.85,3.34C284,212.49,286.5,216.09,288.77,216.09Z" style="fill:#f5f5f5"/><path d="M341.2,225.79c-.7.05-.56-.89-1-3s-1.95-11.31-1.95-11.31l-10.8,4.07s2.9,7.64,3.81,9.84c1,2.45,2.43,5.81,2.66,7.71s.34,7.22,2.73,8.17,4.6-.13,6.18-1.17,3.4-4.63,5.15-6.46,3.21-2.84,4.56-4.72,1.25-6.56-.58-7.53-4.41.14-5.93,1.06S342.5,225.7,341.2,225.79Z" style="fill:#ffa8a7"/><path d="M308.14,150.29c-1.94,8.44-3.07,15.43.27,21.68s6,10,13.46,24.13a29.55,29.55,0,0,0,2.41,12.31c2.89,7.42,6.05,15.39,6.05,15.39a9.66,9.66,0,0,1,9.42-4c-.34-3.65-2.52-21.05-3.59-26.19-1.33-6.4-6.48-28.3-6.48-28.3a15,15,0,0,0,6-12.32Z" style="fill:#455a64"/><path d="M334.8,239.77a21.23,21.23,0,0,1-1.07-5.72,9.82,9.82,0,0,0-.76-3.64s.29-1.84,3.14-4.1,4.63-1.2,4.63-1.2.65,1.12,2.45-.94l3.34,4.26Z" style="fill:#455a64"/><path d="M352.2,221.14c-1.06-1-2.76-1-5,.12a13.19,13.19,0,0,0-4,2.91,2.93,2.93,0,0,0,.62,3.62C345.6,229.25,352.2,221.14,352.2,221.14Z" style="fill:#f5f5f5"/><path d="M353.83,223.1a2.29,2.29,0,0,0-.86-1.53l-.77-.43c-1.32-.86-3.7,1-5.7,2.8-2.33,2.12-4.48,6.36-6.37,9.23s-4.23,4-5,5.25a2.09,2.09,0,0,0,.22,2.57c.12.13.57.55.66.63a3.41,3.41,0,0,0,3,.58,9.23,9.23,0,0,0,6.65-4.4c2.16-3.08,3.3-4.68,5.82-6.65S354.37,225.57,353.83,223.1Z" style="fill:#37474f"/><path d="M353.83,223.1c-.76-3.48-4-1.07-6.56,1.28-2.33,2.11-4.49,6.36-6.37,9.23s-4.29,3.95-5,5.25c-1.3,2.36.5,3.85,3.12,3.34a9.23,9.23,0,0,0,6.65-4.4c2.16-3.08,3.3-4.68,5.82-6.65S354.37,225.57,353.83,223.1Z" style="fill:#263238"/><path d="M341.84,225.29h0c-.79.35-1.1-.18-1.1-.18-2.48,2.51-2.75,4.12-2.75,4.12A27.85,27.85,0,0,1,341.84,225.29Z" style="fill:#37474f"/></g><g id="freepik--top--inject-17"><g id="freepik--top--inject-17"><path d="M361.64,125.6c1.35-3.93,1.62-4.78,2.13-5.6a15.67,15.67,0,0,0,2.17-3.58c.4-1.39.69-2.56.69-2.56s.3-1.31-.18-1.87a.85.85,0,0,0-1.15-.25,1.19,1.19,0,0,0-.22-1.46,1.14,1.14,0,0,0-1.45,0s.53-1.17-.43-1.74a1.09,1.09,0,0,0-1.51.26,1.33,1.33,0,0,0-.77-1.68c-.64-.3-1.39-.06-2.34,2a2.9,2.9,0,0,0-1.52.75,9.41,9.41,0,0,0-1.46,4.34c.08,1,.25,2.11.43,3.32a6.36,6.36,0,0,1-.65,4.25c-.84,1.75-4.49,8.2-4.49,8.2s-1.47-1.14-7.78-5.73c-4.48-3.25-5.88-4.89-10-4.88-5.73,0-1.55,6.42,1.21,11.68,4.42,2.6,11.52,6.84,14.66,8.15,3.68,1.54,5.78,1.74,7.39-.67C359.2,134.37,360.43,129.12,361.64,125.6Z" style="fill:#ffa8a7"/><path d="M365.08,115.86l-.1.08a1,1,0,0,1-.88.21.8.8,0,0,1-.33-.61,3.52,3.52,0,0,1,.13-1.11,0,0,0,0,0,0-.05s-.07,0-.1,0-.28.34-.44.5a.86.86,0,0,1-.78.29c-.6-.07-.67-.83-.6-1.32,0-.16,0-.33.07-.49s0,0,0,0h0a.8.8,0,0,0-.22.23,1.9,1.9,0,0,1-.25.24.75.75,0,0,1-.4.17c-.32,0-.43-.29-.51-.55a2.47,2.47,0,0,1-.05-1.32v0l.11,0c1.15.28,1.67-.84,1.33-1.18s-.41-.46-.61-.69a4.81,4.81,0,0,0-.82-.74,1.84,1.84,0,0,0-.94-.4,4.66,4.66,0,0,0-1.06.12,2.43,2.43,0,0,1,2.23.81l.54.54.3.3a.87.87,0,0,1,.17.21c.21.53-.6.82-1,.79a7,7,0,0,1-1.67-.5c-.09.46-1.17,1.08-1.17,1.08a9.31,9.31,0,0,1,2.33,1.83,10.4,10.4,0,0,1,1.92,3.24,6.51,6.51,0,0,0-1.2-3.12.94.94,0,0,0,.49-.14c-.07.68,0,1.34.82,1.43a1.07,1.07,0,0,0,1-.36,1,1,0,0,0,.41,1,.85.85,0,0,0,1.12-.13,1,1,0,0,0,.15-.21s0,0,0,0S365.1,115.86,365.08,115.86Zm-5.86-4.17s.26.09,1.14.31a4.18,4.18,0,0,0-.28.56.86.86,0,0,1-.21.28.18.18,0,0,1-.08,0,9.61,9.61,0,0,0-1-.83A.9.9,0,0,0,359.22,111.69Z" style="fill:#f28f8f"/><path d="M360.12,112.56h0S360.14,112.53,360.12,112.56Z" style="fill:#f28f8f"/><g id="freepik--chest--inject-17"><path d="M338,133.14c.3-9.33-3.3-12.93-4.89-13.7l-5.89-1c-2,.1-11.71,1.55-14.12,2-1.54.28-5.35,2.9-5.52,8.88-.12,4,.43,8,.59,14.41.12,4.66-1,8.2-2,15,10.27,3.82,21.7,3.6,29.84-1.89-.11-1.32.86-8.71,1.11-11.88S337.94,135.66,338,133.14Z" style="fill:#BA68C8"/><g id="freepik--head--inject-17"><path d="M320,114.32c-.25-2.28-2.36-4.77-3.26-6.79a9.59,9.59,0,0,1-1.14-5.24c.12-1.05.87-2.44,1.68-2.7a4.91,4.91,0,0,1,4-5.91,17,17,0,0,0,2.2-.48c.87-.31,1.1-1,1.82-1.52a2.53,2.53,0,0,1,3.9.72c.84-1,1.91-.88,3.12-.5a2.11,2.11,0,0,1,1.48,2.47,2.21,2.21,0,0,1,3.23,1.4c.07.72-.11,1.32.32,2a1.1,1.1,0,0,0,1.81.23c.11,1-.33,1.77-1.42,1.65a2.35,2.35,0,0,1,.17,2,2.13,2.13,0,0,1-2,1.34,3.4,3.4,0,0,1-.58,1.51,3.55,3.55,0,0,1-1.36,1.1,22.87,22.87,0,0,1-5.38,1.11l-2.16.32c-.13,0-.77,0-.85.13Z" style="fill:#263238"/><path d="M317.4,111.24a2.18,2.18,0,0,0,2.66.08l-.44,4.54-.54,3.66s3.71,5.43,9.78,6.07a6.86,6.86,0,0,0-.36-5.06l.39-3.49a21.59,21.59,0,0,0,2.69,0,4.7,4.7,0,0,0,4-3.34,20.33,20.33,0,0,0,.68-7.66,6.81,6.81,0,0,1,0-1.86,8.63,8.63,0,0,0-.32-4c-1.85-1.68-7.34-2.33-11.69,0,.78,2.19.08,4.34-1.79,5.18.05.68,0,2.39-1.08,2.3-.79-.07-.79-1.08-1.56-2s-2.67-1.28-3.48,0A4.31,4.31,0,0,0,317.4,111.24Z" style="fill:#ffa8a7"/><path d="M328.89,117c-2.79-.5-4.9-.93-6.25-3.05a17.9,17.9,0,0,1-1.5-3.42,14,14,0,0,0,1,4.24c.63,1.34,2.31,2.52,6.69,3.15Z" style="fill:#f28f8f"/><path d="M328.84,106a.79.79,0,0,1-.85.76.81.81,0,0,1-.73-.87.79.79,0,1,1,1.58.11Z" style="fill:#263238"/><path d="M328.18,103.64l-1.77.77a1,1,0,0,1,.52-1.31A.94.94,0,0,1,328.18,103.64Z" style="fill:#263238"/><path d="M335.29,104.11l-1.85-.62a1,1,0,0,1,1.21-.63A1,1,0,0,1,335.29,104.11Z" style="fill:#263238"/><path d="M335.06,105.88a.8.8,0,0,1-.85.76.82.82,0,0,1-.73-.88.8.8,0,0,1,.85-.76A.81.81,0,0,1,335.06,105.88Z" style="fill:#263238"/><path d="M333.73,108.92,330.91,110l-.54-5.44C331.42,104.24,332.59,106.79,333.73,108.92Z" style="fill:#f28f8f"/><path d="M327.86,111.13l3.26.9a1.66,1.66,0,0,1-2.05,1.24A1.78,1.78,0,0,1,327.86,111.13Z" style="fill:#b16668"/><path d="M328.22,111.69a2.82,2.82,0,0,0-.41,0,1.77,1.77,0,0,0,1.26,1.6,1.65,1.65,0,0,0,.54,0A1.56,1.56,0,0,0,328.22,111.69Z" style="fill:#f28f8f"/></g></g><g id="freepik--Arm--inject-17"><path d="M297.29,163.17a9.07,9.07,0,0,1-1-2.85c.11-.76,1.33,1.13,1.88,1.5a2.05,2.05,0,0,0,1.51.46c.34,0,.89-.37.84-.72,0-.08-.07-.12-.12-.17a19.94,19.94,0,0,1-1.83-2.81,10.36,10.36,0,0,0-1.7-2.26,5.76,5.76,0,0,1-1.53-3.29,92.73,92.73,0,0,1,.16-12.72c3.85-1.54,12.35-5.39,14.05-6.06A8.2,8.2,0,0,0,314,129.5c.94-2.13.54-7.82-.91-9-3.41.3-4.62,1.33-8,3.22-2.1,1.18-3.39,2-8,4.69-1.71,1-4.93,2.82-8.06,4.85a3.86,3.86,0,0,0-2.17,4.08,72.52,72.52,0,0,0,.65,7.61c.27,2,.52,2.9,1,6.17.09.63.22,1.62.37,2.79s.19,2.8.22,4a20.8,20.8,0,0,0,.39,3.62,12.13,12.13,0,0,0,1.91,4.28c.26.25.58.31.82.56s.37.58.63.81c.41.36.76.26,1.37.2a1.14,1.14,0,0,1,.71.11,3.05,3.05,0,0,1,.53.49,2.09,2.09,0,0,0,2.19.3l1.47,1.15a.51.51,0,0,0,.32.12.26.26,0,0,0,.17-.13,1.36,1.36,0,0,0,.24-1,3.58,3.58,0,0,0-.75-1.78A35.17,35.17,0,0,1,297.29,163.17Z" style="fill:#ffa8a7"/></g></g></g></g><path d="M308.76,182.71l-47.15-27.22a3.47,3.47,0,0,0-3.15-.06,1,1,0,0,0-.6.9c0,.29,0,1.39,0,1.72a1.19,1.19,0,0,0,.7.92l47.15,27.22,3.05-1.76Z" style="fill:#37474f"/><path d="M258.56,157.25a1.2,1.2,0,0,1-.7-.92,1,1,0,0,1,.6-.9,3.47,3.47,0,0,1,3.15.06l47.15,27.22-3.05,1.76Z" style="fill:#455a64"/><path d="M386.74,244.3l-3.06-1.76a.83.83,0,0,0-.85-.07l-3.33,1.93a1.16,1.16,0,0,0-.45,1v2.82l5.65,3.26L388,249.6v-2.82A3.12,3.12,0,0,0,386.74,244.3Z" style="fill:#37474f"/><path d="M383.4,246.23l-3-1.76c-.72-.42-1.3,0-1.3,1v2.82l5.65,3.26V248.7A3.1,3.1,0,0,0,383.4,246.23Z" style="fill:#263238"/><path d="M383.21,246.47l-3-1.71a.8.8,0,0,0-.82-.06h0l-40.51,23.39h0a1.09,1.09,0,0,0-.44,1V270l5.48,3.17,40.5-23.38v-.87A3,3,0,0,0,383.21,246.47Z" style="fill:#455a64"/><path d="M344.34,268.78,341.28,267a.83.83,0,0,0-.85-.06l-3.33,1.92a1.17,1.17,0,0,0-.45,1.05v2.82L342.3,276l3.33-1.93v-2.82A3.1,3.1,0,0,0,344.34,268.78Z" style="fill:#37474f"/><path d="M341,270.71,338,268.94c-.72-.41-1.3,0-1.3,1v2.82L342.3,276v-2.82A3.1,3.1,0,0,0,341,270.71Z" style="fill:#263238"/><path d="M344.42,278.47,311.81,181l-6.1-3.52-3,1.76,30.65,91.62-27.6-15.93-3,1.76v3.52l37.07,21.4a1.12,1.12,0,0,0,1.12,0l3-1.76A1.14,1.14,0,0,0,344.42,278.47Z" style="fill:#37474f"/><polygon points="344.42 278.47 341.01 268.51 337.67 258.53 330.98 238.57 324.42 218.57 321.13 208.57 311.81 180.95 321.31 208.51 324.65 218.49 331.34 238.45 337.91 258.45 341.19 268.45 344.42 278.47" style="fill:#263238"/><path d="M339.73,281.57l-13.47-7.79-23.6-13.62v-3.52l23.89,13.79,7.1,4.1a.48.48,0,0,0,.7-.57l-3.48-10.5-28.21-84.27,5.74,2.43,27,80.72,5.94,17.89A1.14,1.14,0,0,1,339.73,281.57Z" style="fill:#455a64"/><path d="M330.87,263.46l-11.14-33.3c-3.65-11.13-13.46-39.83-17.07-51,3.77,11.09,13.53,39.81,17.25,50.91Z" style="fill:#263238"/><path d="M339.73,281.57l-13.47-7.79a18.5,18.5,0,0,1,.29-3.35c.61-3.3,2.15-5.68,4.32-7a8.21,8.21,0,0,1,4.56-1.12l5.94,17.89A1.14,1.14,0,0,1,339.73,281.57Z" style="fill:#263238"/><path d="M333.65,264a1.74,1.74,0,0,1,.78,1.36c0,.5-.35.7-.78.45a1.72,1.72,0,0,1-.79-1.36C332.86,263.92,333.21,263.71,333.65,264Z" style="fill:#455a64"/><path d="M327.84,271.88a1.72,1.72,0,0,1,.79,1.36c0,.51-.35.71-.79.46a1.74,1.74,0,0,1-.78-1.36C327.06,271.83,327.41,271.63,327.84,271.88Z" style="fill:#455a64"/><path d="M372,153.84c-.93-2.85-5.93-5.06-14.41-6.33l-54.88,31.68,1,3.12c26-3.6,50.54-10,62.43-16.87,5.52-3.18,7.67-6.08,6.85-8.51C372.64,155.94,372.27,154.82,372,153.84Z" style="fill:#455a64"/><path d="M365.1,162.32c-11.89,6.87-36.44,13.27-62.44,16.87l54.88-31.68C373.25,149.87,377,155.44,365.1,162.32Z" style="fill:#37474f"/><path d="M358.26,151.43c7.56,1.28,9.61,3,10.05,3.49-.23.46-1.22,1.92-5.08,4.15-8,4.63-22.94,9.31-40.56,12.91Z" style="fill:#BA68C8"/><path d="M358.26,151.43c7.56,1.28,9.61,3,10.05,3.49-.23.46-1.22,1.92-5.08,4.15-8,4.63-22.94,9.31-40.56,12.91Z" style="fill:#fff;opacity:0.45"/><polygon points="364.49 151.76 331.78 170.65 333.77 171.79 366.48 152.91 364.49 151.76" style="fill:#37474f"/><path d="M322.82,108c0,.77.86,1.41,2,1.44s2-.58,2-1.34-.86-1.41-2-1.44S322.84,107.27,322.82,108Z" style="fill:#f28f8f"/><path d="M334.39,108.28c0,.77.86,1.41,1.95,1.43s2-.57,2-1.34-.86-1.41-1.95-1.43S334.41,107.51,334.39,108.28Z" style="fill:#f28f8f"/></g></g><g id="freepik--character-2--inject-17"><g id="freepik--character--inject-17"><path d="M272.19,203.82,225,176.6a3.47,3.47,0,0,0-3.15-.06,1,1,0,0,0-.6.9c0,.29,0,1.4,0,1.72a1.21,1.21,0,0,0,.7.92l47.16,27.23,3-1.76Z" style="fill:#37474f"/><path d="M222,178.36a1.21,1.21,0,0,1-.7-.92,1,1,0,0,1,.6-.9,3.47,3.47,0,0,1,3.15.06l47.15,27.22-3,1.76Z" style="fill:#455a64"/><path d="M307.86,299.58l-32.61-97.52-6.1-3.52-3,1.76,30.65,91.62L269.16,276l-3.05,1.76v3.52l37.07,21.4a1.08,1.08,0,0,0,1.11,0c.44-.24,2.73-1.57,3.06-1.76A1.12,1.12,0,0,0,307.86,299.58Z" style="fill:#37474f"/><polygon points="307.86 299.58 304.46 289.62 301.11 279.64 294.43 259.68 287.86 239.68 278.48 212.08 275.25 202.06 278.65 212.02 288.1 239.6 294.78 259.56 301.35 279.56 304.63 289.56 307.86 299.58" style="fill:#263238"/><path d="M303.17,302.67l-13.47-7.78-23.6-13.62v-3.52L290,291.54l7.1,4.1a.48.48,0,0,0,.7-.57l-3.48-10.5-28.2-84.27,6.09,3.52,26.67,79.63,5.94,17.89A1.13,1.13,0,0,1,303.17,302.67Z" style="fill:#455a64"/><path d="M294.31,284.57l-11.14-33.31c-3.65-11.12-13.46-39.82-17.06-51,3.76,11.08,13.52,39.8,17.24,50.9Z" style="fill:#263238"/><path d="M303.17,302.67l-13.47-7.78a18.5,18.5,0,0,1,.29-3.35c.61-3.3,2.15-5.68,4.32-7a8.23,8.23,0,0,1,4.56-1.12l5.94,17.89A1.13,1.13,0,0,1,303.17,302.67Z" style="fill:#263238"/><path d="M297.09,285.07a1.74,1.74,0,0,1,.78,1.37c0,.5-.35.7-.78.45a1.72,1.72,0,0,1-.79-1.36C296.3,285,296.65,284.82,297.09,285.07Z" style="fill:#455a64"/><path d="M291.28,293a1.72,1.72,0,0,1,.79,1.36c0,.5-.35.71-.79.46a1.77,1.77,0,0,1-.78-1.37C290.5,292.94,290.85,292.74,291.28,293Z" style="fill:#455a64"/><path d="M206.89,242.53l-3.06-1.77a.83.83,0,0,0-.85-.06l-3.33,1.92a1.17,1.17,0,0,0-.45,1v2.82l5.65,3.26,3.33-1.93V245A3.1,3.1,0,0,0,206.89,242.53Z" style="fill:#37474f"/><path d="M203.55,244.46l-3.05-1.77c-.72-.41-1.3,0-1.3,1v2.82l5.65,3.26v-2.82A3.09,3.09,0,0,0,203.55,244.46Z" style="fill:#263238"/><path d="M203.36,244.7l-3-1.72a.82.82,0,0,0-.82-.06h0L159.07,266.3h0a1.11,1.11,0,0,0-.44,1v.87l5.47,3.16L204.62,248v-.87A3,3,0,0,0,203.36,244.7Z" style="fill:#455a64"/><path d="M164.49,267l-3.06-1.76a.83.83,0,0,0-.85-.07l-3.33,1.93a1.15,1.15,0,0,0-.45,1V271l5.65,3.26,3.33-1.93v-2.82A3.12,3.12,0,0,0,164.49,267Z" style="fill:#37474f"/><path d="M161.15,268.93l-3.05-1.76c-.72-.42-1.3,0-1.3,1V271l5.65,3.26V271.4A3.09,3.09,0,0,0,161.15,268.93Z" style="fill:#263238"/><polygon points="165.5 268.94 253.91 319.99 253.91 322.76 165.49 271.71 165.5 268.94" style="fill:#e0e0e0"/><polygon points="165.5 268.94 253.91 319.99 253.91 322.76 165.49 271.71 165.5 268.94" style="opacity:0.2"/><polygon points="204.62 246.36 165.5 268.94 253.91 319.99 293.04 297.41 204.62 246.36" style="fill:#e0e0e0"/><path d="M206.12,250.7l69.78,40c5.4,3.09,5.4,8.11,0,11.22l-14,8.11c-5.38,3.11-14.11,3.11-19.5,0l-69.51-40.14Z" style="fill:#455a64"/><polygon points="206.12 250.7 207.72 251.61 174.46 270.81 172.87 269.89 206.12 250.7" style="fill:#37474f"/><path d="M250.8,306.45a.23.23,0,0,1-.14,0l-67.07-38.72a.28.28,0,0,1-.11-.38.29.29,0,0,1,.39-.11l67.07,38.73a.28.28,0,0,1,.1.38A.27.27,0,0,1,250.8,306.45Z" style="fill:#263238"/><path d="M256.9,302.93a.23.23,0,0,1-.14,0l-67.08-38.72a.28.28,0,1,1,.29-.49L257,302.41a.28.28,0,0,1,.1.38A.28.28,0,0,1,256.9,302.93Z" style="fill:#263238"/><path d="M263,299.41a.27.27,0,0,1-.14,0l-67.07-38.72a.29.29,0,0,1-.1-.39.28.28,0,0,1,.38-.1l67.08,38.73a.28.28,0,0,1,.1.38A.29.29,0,0,1,263,299.41Z" style="fill:#263238"/><path d="M269.09,295.89a.25.25,0,0,1-.14,0l-67.07-38.72a.28.28,0,1,1,.28-.49l67.07,38.72a.29.29,0,0,1,.11.39A.3.3,0,0,1,269.09,295.89Z" style="fill:#263238"/><path id="freepik--shadow--inject-17" d="M208,279.44a55,55,0,0,1,11.27,6.64c3.9,3,7.41,6.51,11.61,9.05a37,37,0,0,0,18.27,5c3.62.08,7.59-.41,10.08-3a4.15,4.15,0,0,0,1.25-2.43,5,5,0,0,0-1.67-3.58c-4.89-5.36-12.06-7.93-19-10s-11-4.41-17.7-8.5c-2.86-1.76-5.66-3.63-8.54-5.29l-.07,0a45.93,45.93,0,0,0-4.39-2.45,35.85,35.85,0,0,0-7.71-2.58,16.14,16.14,0,0,0-8,.37,3.67,3.67,0,0,0-1.77,1.08,2.87,2.87,0,0,0-.52,1.66,6,6,0,0,0,1,3.42,13.35,13.35,0,0,0,2.38,2.71C198.28,275,203.17,277.35,208,279.44Z" style="opacity:0.2"/><g id="freepik--character--inject-17"><g id="freepik--bottom--inject-17"><path d="M242.47,201.76l-17,1s-1.29,5.54-1.78,9.74,1.92,8.35,1.92,8.35l1.06,7.17c-8,2.25-11.13,6.91-15,11.3-2.83,3.19-4.64,5.24-7.06,6.58s-3.37,2,.31,5.16a4.51,4.51,0,0,0,3.86,1.2s14.22-7.92,21.82-12h0c5.74-2.73,6.65-2.86,8.53-8.34C243,220.55,243.06,206,242.47,201.76Z" style="fill:#f28f8f"/><path d="M242.47,201.76l-17.54,1s-1.69,7.91-1.78,11.27a13.19,13.19,0,0,0,2.07,6.61l.51,2.2c3.31,1.26,14.5.11,16.28-2.28C242.79,215.63,243.1,205.72,242.47,201.76Z" style="fill:#263238"/><path d="M205.5,260.38a15.56,15.56,0,0,1,2.72-6c1.43-1.92,2.76-2.47,2.06-3l-.31.17c-1.82.19-3.65-1.34-4.4-1.59s-2.19,2.68-3,5a15.71,15.71,0,0,0-.88,5.83Z" style="fill:#BA68C8"/><g style="opacity:0.2"><path d="M205.5,260.38a15.56,15.56,0,0,1,2.72-6c1.43-1.92,2.76-2.47,2.06-3l-.31.17c-1.82.19-3.65-1.34-4.4-1.59s-2.19,2.68-3,5a15.71,15.71,0,0,0-.88,5.83Z"/></g><path d="M202.69,269.46c-.4.35-.94.42-2.89-.81-1.72-1.1-2.85-3.65-3.63-6a10.6,10.6,0,0,1,.65-7,14.26,14.26,0,0,0,.91-5.75c-.08-1.26-.15-1.41.34-1.75s.94-.63.94-.63Z" style="fill:#ebebeb"/><path d="M205.4,245.36a2.58,2.58,0,0,0-1.14,2.21,3.33,3.33,0,0,0,.47,2.11c.39.62-1,2.6-1.91,5.15-.61,1.77-1.16,5-.93,5.37a6.13,6.13,0,0,1,3.63,0,35.79,35.79,0,0,0-.12,5.05c.13,1.91.49,2.28-.14,3a4.3,4.3,0,0,1-2.75,1.13c-.67-.1-3.14-1.49-4.75-5-1.5-3.27-.61-5.51.16-8.32a16.28,16.28,0,0,0,.74-5c-.08-1.57-.19-2.67.35-3.56a5.31,5.31,0,0,1,2.16-1.42c1.44-.54,2.62-.8,3.73-1.34a1.56,1.56,0,0,1,1.33,0A3.89,3.89,0,0,1,205.4,245.36Z" style="fill:#BA68C8"/><path d="M204.38,267.59a2.78,2.78,0,0,0-1.67,1.17c-.11.24-.13.89-1,.7a7.61,7.61,0,0,1-3.14-2.24,18,18,0,0,1-2.32-4.53,9.05,9.05,0,0,1,.11-5.51,17.52,17.52,0,0,0,1.34-5.3c.19-2.29-.13-2.91,0-3.39a3,3,0,0,0-.42.38c-.17.84.29,1.44-.19,4.51a26.58,26.58,0,0,1-1.17,3.83,9.88,9.88,0,0,0-.07,5.76,11.18,11.18,0,0,0,4.32,6.35,3.85,3.85,0,0,0,4.65-.14,2.28,2.28,0,0,0,.71-1.51C205.61,267.23,205.07,267.33,204.38,267.59Z" style="fill:#455a64"/><path d="M201.62,260.64c1.45-.7,3.79-.21,3.84.26l0,.23s.18,0,.25-.61c-.05-.45-.31-.77-1.58-.93a5.56,5.56,0,0,0-2.51.24S201.36,260.47,201.62,260.64Z" style="fill:#455a64"/><path d="M202,258.1c2.14-.51,3.89.3,4,.62l0,.15s.25,0,.32-.61c0-.24-.4-.74-1.56-1a6,6,0,0,0-2.61.09S201.73,257.86,202,258.1Z" style="fill:#455a64"/><path d="M202.38,256c2.61-.8,4.31.5,4.36.82l-.07.15s.25,0,.38-.58c0-.25-.33-.77-1.46-1.11a5.47,5.47,0,0,0-3.06,0S202.18,255.74,202.38,256Z" style="fill:#455a64"/><path d="M203.11,253.55c2.38-.42,4.71,1,4.77,1.34l-.08.12s.26.08.39-.55c0-.25-.41-.58-1.47-1.11a5.59,5.59,0,0,0-3.35-.5S202.91,253.29,203.11,253.55Z" style="fill:#455a64"/><path d="M254.8,289.11c-.52-.14-1-.29-1.52-.46-4.7-1.58-10-4.58-11.45-9.41a3.6,3.6,0,0,1,.94-3.67,3.54,3.54,0,0,0,1-3.23c-.82-4.1-3.07-13.71-2.45-20.69l-1.44-.91-1.8,1-.07.8c-.64,7.22,1.15,17.38,1.95,21.41a2,2,0,0,1-.54,1.81,5.11,5.11,0,0,0-1.43,5,17.19,17.19,0,0,0,10.8,11.52c.52.17,1.07.34,1.62.48a3.88,3.88,0,0,0,.79.1,6.45,6.45,0,0,0,3-.77,2,2,0,0,0,1.07-1.71l0-.85h0C255.32,289.35,255.15,289.2,254.8,289.11Z" style="fill:#263238"/><path d="M255.32,289.55h0c0,.28-.34.64-1,1a6.08,6.08,0,0,1-3.57.78c-.51-.14-1-.29-1.52-.45a15.68,15.68,0,0,1-9.79-10.34,3.6,3.6,0,0,1,.94-3.66,3.53,3.53,0,0,0,1-3.24c-.81-4.09-2.54-14-1.92-21l1.85-1c-.62,7,1.63,16.59,2.45,20.69a3.54,3.54,0,0,1-1,3.23,3.6,3.6,0,0,0-.94,3.67c1.49,4.83,6.75,7.83,11.45,9.41.49.17,1,.32,1.52.46C255.15,289.2,255.32,289.35,255.32,289.55Z" style="fill:#455a64"/><path d="M242,276.63a3.53,3.53,0,0,1,.75-1.06,3.5,3.5,0,0,0,1.06-2.25l-2.37,1.32a3.55,3.55,0,0,1-1.06,2.25,3.41,3.41,0,0,0-.75,1.06Z" style="fill:#37474f"/><path d="M219.59,202.58a71.37,71.37,0,0,0-3.53,6.65,12.46,12.46,0,0,0,1,11.85,78.15,78.15,0,0,0,7.36,10.3c3.48,3.7,8.79,9.19,9.9,10.27s2.73,2.82,2.73,2.82a50.64,50.64,0,0,0-.08,5.81c.71,1.18,2.72,2.14,5.88,2.53a10.43,10.43,0,0,0,5.64-1.16,60.32,60.32,0,0,0-.51-10.76c-.47-4.28-8.14-16.88-13.06-26.18a14.17,14.17,0,0,0,4.88-5.34,48.07,48.07,0,0,0,2.64-7.61Z" style="fill:#ffa8a7"/><path d="M219.86,227.33a2.07,2.07,0,0,0,1.27-.14l-2.08-3.07Z" style="fill:#263238"/><path d="M235,242.25c.23-1.56,3.22-4.94,6.54-6.07s4.39-.88,5-.57.92,1.5,1.42,2.59a10.52,10.52,0,0,1,1.11,5.57c-.08,3.17,0,8,0,8s-6.42,3.92-12.13-1.31a51.29,51.29,0,0,1-.18-6C235.71,243.34,234.84,243.05,235,242.25Z" style="fill:#BA68C8"/><path d="M235,242.25c.23-1.56,3.22-4.94,6.54-6.07s4.39-.88,5-.57.92,1.5,1.42,2.59a10.52,10.52,0,0,1,1.11,5.57c-.08,3.17,0,8,0,8s-6.42,3.92-12.13-1.31a51.29,51.29,0,0,1-.18-6C235.71,243.34,234.84,243.05,235,242.25Z" style="fill:#fff;opacity:0.55"/><path d="M238.3,241.32c-1.27.44-1.59,1.64-2.09,1.7s-1.21-.86-1-1.45a2.42,2.42,0,0,0-.22.68c-.12.8.75,1.09,1.79,2.21A5.21,5.21,0,0,1,238.3,241.32Z" style="fill:#BA68C8;opacity:0.5"/><path d="M236.82,248.88l0,.55c.65,1.23,2.87,2.07,4,1.43,1.64-.93.95-3,2-5.38,1-2.2,2.14-3,3.66-3.12,3.36-.32,2.67,4.58,2.78,11.44,0,2.36.08,3.85-.07,6.36-.07,1.22-1.16,3.16-2.48,3.53-1.93.55-3.87-.47-4.41-3.23-1.31-6.76-3.2-6.15-5.1-6.17C236.47,252,236.34,249,236.82,248.88Z" style="fill:#37474f"/><path d="M246.69,247.51c-1.84.34-2.2,2.58-2.12,5.67.06,2.61,0,5.63,2.24,5.43,1.94-.19,1.77-2.35,1.7-6.37S248.12,247.24,246.69,247.51Z" style="fill:#f5f5f5"/><path d="M244.26,250.79a9,9,0,0,0,4.42-.78s.3.17.07.91c-.82.79-3,1.07-4.39.88C244,251.43,244.26,250.79,244.26,250.79Z" style="fill:#263238"/><path d="M244.32,253.24a9.12,9.12,0,0,0,4.42-.79s.29.17.07.91c-.82.79-3,1.07-4.4.88A1.07,1.07,0,0,1,244.32,253.24Z" style="fill:#263238"/><path d="M244.38,255.68a8.94,8.94,0,0,0,4.41-.79s.3.18.07.92c-.81.79-3,1.07-4.39.88C244.13,256.32,244.38,255.68,244.38,255.68Z" style="fill:#263238"/><path d="M219.05,200.66a18.46,18.46,0,0,0-3.76,7.2,21.52,21.52,0,0,0,.2,11.16,25.74,25.74,0,0,0,4.37,8.31,16.82,16.82,0,0,1,3-3.43,12.28,12.28,0,0,1-2.38-6.5,19.82,19.82,0,0,0,4.09,5,20.8,20.8,0,0,1,8.34-3.06c3.57-.39,5,.92,5,.92l-2.75-5.52s6.48-3.29,7.26-13Z" style="fill:#37474f"/></g><g id="freepik--top--inject-17"><path d="M267.94,175.38c1.36-3.93,1.63-4.78,2.13-5.59a15.4,15.4,0,0,0,2.18-3.59c.4-1.39.68-2.55.68-2.55s.3-1.31-.18-1.88a.86.86,0,0,0-1.15-.25,1.2,1.2,0,0,0-.21-1.46,1.14,1.14,0,0,0-1.45.05s.52-1.18-.44-1.74a1.07,1.07,0,0,0-1.5.25,1.32,1.32,0,0,0-.77-1.67c-.64-.3-1.4-.07-2.35,2a2.85,2.85,0,0,0-1.51.75,9.3,9.3,0,0,0-1.46,4.34c.07,1,.24,2.11.42,3.32a6.32,6.32,0,0,1-.64,4.25c-.84,1.75-4.49,8.21-4.49,8.21s-1.47-1.15-7.78-5.73c-4.49-3.26-5.89-4.9-10-4.89-5.73,0-1.56,6.42,1.21,11.68,4.42,2.6,11.52,6.84,14.66,8.15,3.67,1.54,5.78,1.75,7.39-.67C265.51,184.15,266.73,178.9,267.94,175.38Z" style="fill:#ffa8a7"/><path d="M271.39,165.64l-.11.08a1,1,0,0,1-.87.21.77.77,0,0,1-.33-.61,3.52,3.52,0,0,1,.13-1.11v-.05s-.07,0-.1,0-.29.34-.44.5a.87.87,0,0,1-.79.29c-.6-.07-.67-.83-.6-1.32,0-.16.06-.32.07-.49,0,0,0,0,0,0h0a.84.84,0,0,0-.23.23,1.36,1.36,0,0,1-.24.24.79.79,0,0,1-.4.17c-.33,0-.43-.29-.51-.55a2.57,2.57,0,0,1-.06-1.32s0,0,0,0l.11,0c1.15.28,1.67-.84,1.33-1.17s-.41-.47-.61-.7a4.81,4.81,0,0,0-.82-.74,1.87,1.87,0,0,0-.95-.4,4.79,4.79,0,0,0-1.06.12,2.8,2.8,0,0,1,1.22.11,2.74,2.74,0,0,1,1,.7l.55.54.3.3a.65.65,0,0,1,.16.21c.22.53-.59.82-1,.8a7.35,7.35,0,0,1-1.66-.51c-.1.46-1.17,1.08-1.17,1.08a9.17,9.17,0,0,1,2.32,1.83,10.54,10.54,0,0,1,1.93,3.24,6.52,6.52,0,0,0-1.21-3.12.89.89,0,0,0,.5-.14c-.07.69,0,1.34.81,1.43a1.06,1.06,0,0,0,1-.36.93.93,0,0,0,.42,1,.85.85,0,0,0,1.12-.13,1.53,1.53,0,0,0,.14-.21l0,0S271.41,165.64,271.39,165.64Zm-5.87-4.17s.27.1,1.15.31a6.1,6.1,0,0,0-.29.57,1.1,1.1,0,0,1-.2.28l-.09.05a8.24,8.24,0,0,0-1-.83A1,1,0,0,0,265.52,161.47Z" style="fill:#f28f8f"/><path d="M266.42,162.34Z" style="fill:#f28f8f"/><path d="M221.53,192c.22,1.27.72,2.7.18,4.28a15.9,15.9,0,0,1-2.66,4.36c3,3.15,9.87,4.63,14.87,4.3,6.86-.45,8.55-3.2,8.55-3.2l.09-8.28Z" style="fill:#ffa8a7"/><path d="M247.52,180.9c-2.28-5.9-8.08-11.68-8.08-11.68a47.64,47.64,0,0,0-9.23.07c-2.5.28-4.74.57-6.92.86a9.27,9.27,0,0,0-3.77,4.72,18.88,18.88,0,0,0-.43,7c.85,3.61,2.58,11.17,2.58,11.17,4.85,3.93,17.7,3.72,20.89,1.17,0,0,.18-2.19.31-4.16A7.39,7.39,0,0,0,247.52,180.9Z" style="fill:#455a64"/><path d="M238.42,189.49a8.14,8.14,0,0,1-7.15.54,5.89,5.89,0,0,1-3.93-6.34s-1.7,5.3,3,7.32C236.22,193.54,238.42,189.49,238.42,189.49Z" style="opacity:0.2"/><path d="M229.13,149.82a3.51,3.51,0,0,0-1.45-4.19,3.06,3.06,0,0,0-2.56-.17,2.21,2.21,0,0,0-1.51-1.09,4.19,4.19,0,0,0-3,.69,3.29,3.29,0,0,0-1.44,1.86,2.34,2.34,0,0,0,.54,2.24,1.43,1.43,0,0,0-1,1.31,1.41,1.41,0,0,0,.93,1.34,1.81,1.81,0,0,0,0,1.72,1.84,1.84,0,0,0,1.44.94,2.71,2.71,0,0,0-1.27,3.38,3.1,3.1,0,0,0,2.68,2.14,4.26,4.26,0,0,1-1.58-1.3,2.41,2.41,0,0,1-.4-2,1.67,1.67,0,0,1,1.47-1.24,1,1,0,0,0-.4,1,1.37,1.37,0,0,0,.76,1c.51.17.85.18,1.81-.29.24-.12.15.05.42,0a1.43,1.43,0,0,0,1-.63,4.55,4.55,0,0,0,.5-1.07,18,18,0,0,1,1.81-3.49A11.52,11.52,0,0,0,229.13,149.82Z" style="fill:#263238"/><path d="M245.48,153.65a14.67,14.67,0,0,1-1.07,4.73c-.25.54-13.29,6.2-15.65,7.36a50.29,50.29,0,0,0-3.46-6.08c-2.32-3.15-2.75-8.12,1.11-10.14a7.35,7.35,0,0,1,4.53-5.48C237.62,141.64,246.24,144.64,245.48,153.65Z" style="fill:#263238"/><path d="M243.93,149.75s2.34,3.5,1.2,10.67c-.74,4.63-1.6,6.33-3.92,7a11.43,11.43,0,0,1-4.49,0l-.4,3.08s4.61,5.26.35,5.51a9.33,9.33,0,0,1-6.32-2.43,8.69,8.69,0,0,1-2.31-3.49l.55-7.46a2.17,2.17,0,0,1-2.94-.56c-1.61-1.8-1.35-4.46.1-5.31a2.51,2.51,0,0,1,3.82,1.41c.4,1,1.87.89,1.73-1.36s.49-6.2,2.48-6.74C236.24,149.45,238.93,154.78,243.93,149.75Z" style="fill:#ffa8a7"/><path d="M228.45,159.22a1.05,1.05,0,0,1-.43.88,1,1,0,0,1-.52.21c-.11,0-.07.19.05.71l.08.34a.34.34,0,0,1-.22.42h0a.34.34,0,0,1-.43-.22l-.6-1.93a1.13,1.13,0,0,1,.68-1.41A1.08,1.08,0,0,1,228.45,159.22Z" style="fill:#fafafa"/><path d="M231.34,159.38c0,.77.85,1.41,1.95,1.44s2-.58,2-1.34-.86-1.41-1.95-1.44S231.35,158.62,231.34,159.38Z" style="fill:#f28f8f"/><path d="M242.9,159.63c0,.77.86,1.41,2,1.43s2-.57,2-1.34-.86-1.41-2-1.43S242.92,158.86,242.9,159.63Z" style="fill:#f28f8f"/><path d="M236.64,161.71l2.76.85a1.41,1.41,0,0,1-1.78,1A1.51,1.51,0,0,1,236.64,161.71Z" style="fill:#b16668"/><path d="M236.75,154.57l-2,.83a1,1,0,0,1,.56-1.42A1.15,1.15,0,0,1,236.75,154.57Z" style="fill:#263238"/><path d="M242.32,154.54l1.85,1.16a1,1,0,0,0-.3-1.49A1.15,1.15,0,0,0,242.32,154.54Z" style="fill:#263238"/><polygon points="239.32 155.7 239.32 160.65 242.22 159.9 239.32 155.7" style="fill:#f28f8f"/><path d="M236.72,167.46a17.92,17.92,0,0,1-5.63-2.39,5.67,5.67,0,0,1-1.57-2.43,5.38,5.38,0,0,0,1.24,3.3c1.84,1.67,5.79,2.87,5.79,2.87Z" style="fill:#f28f8f"/><path d="M241.68,156.9a.85.85,0,0,0,.73.94.8.8,0,0,0,.93-.69.87.87,0,0,0-.73-1A.81.81,0,0,0,241.68,156.9Z" style="fill:#263238"/><path d="M235.54,156.9a.85.85,0,0,0,.73.94.8.8,0,0,0,.93-.69.87.87,0,0,0-.73-1A.82.82,0,0,0,235.54,156.9Z" style="fill:#263238"/><path d="M236.64,162.51H237a2,2,0,0,1,1.48,1,1.42,1.42,0,0,1-.84,0A1.44,1.44,0,0,1,236.64,162.51Z" style="fill:#f28f8f"/><g id="freepik--arm--inject-17"><path d="M207.45,212.87a9.12,9.12,0,0,1-1-2.84c.11-.76,1.34,1.13,1.88,1.5a2.14,2.14,0,0,0,1.51.46c.34,0,.89-.38.84-.73,0-.07-.07-.11-.11-.17a18.64,18.64,0,0,1-1.84-2.81A10.6,10.6,0,0,0,207,206a5.76,5.76,0,0,1-1.53-3.29,92.75,92.75,0,0,1,.16-12.72c3.85-1.53,12.35-5.39,14-6.06a8.25,8.25,0,0,0,4.5-4.75c.93-2.13.53-7.81-.91-9-3.42.3-4.63,1.33-8,3.22-2.1,1.18-3.39,1.95-8,4.7-1.71,1-4.93,2.82-8.05,4.84a3.86,3.86,0,0,0-2.18,4.08,72.48,72.48,0,0,0,.65,7.62c.27,2,.52,2.89,1,6.16.09.63.22,1.62.37,2.79s.19,2.8.22,4a20.8,20.8,0,0,0,.39,3.62,12.13,12.13,0,0,0,1.91,4.28c.26.25.58.31.82.56s.37.58.64.82.75.25,1.37.19a1.2,1.2,0,0,1,.7.11,4.1,4.1,0,0,1,.53.49,2.05,2.05,0,0,0,2.19.3l1.47,1.15a.43.43,0,0,0,.32.12.24.24,0,0,0,.17-.13,1.37,1.37,0,0,0,.25-1,3.7,3.7,0,0,0-.76-1.77C208.86,215.61,207.76,213.57,207.45,212.87Z" style="fill:#ffa8a7"/></g></g></g><path d="M220.37,233.74l-47.15-27.22a3.47,3.47,0,0,0-3.15-.06,1,1,0,0,0-.6.9c0,.29,0,1.39,0,1.72a1.21,1.21,0,0,0,.7.92l47.16,27.22,3-1.76Z" style="fill:#37474f"/><path d="M170.17,208.28a1.23,1.23,0,0,1-.7-.92,1,1,0,0,1,.6-.9,3.47,3.47,0,0,1,3.15.06l47.15,27.22-3,1.76Z" style="fill:#455a64"/><path d="M298.35,295.33l-3.06-1.76a.83.83,0,0,0-.85-.07l-3.33,1.93a1.15,1.15,0,0,0-.44,1.05v2.82l5.64,3.26,3.33-1.93v-2.82A3.12,3.12,0,0,0,298.35,295.33Z" style="fill:#37474f"/><path d="M295,297.26,292,295.5c-.72-.42-1.29,0-1.29,1v2.82l5.64,3.26v-2.83A3.12,3.12,0,0,0,295,297.26Z" style="fill:#263238"/><path d="M294.83,297.5l-3-1.71a.78.78,0,0,0-.81-.06h0l-40.5,23.39h0a1.09,1.09,0,0,0-.44,1V321l5.48,3.16,40.5-23.38v-.87A3,3,0,0,0,294.83,297.5Z" style="fill:#455a64"/><path d="M256,319.81,252.89,318A.83.83,0,0,0,252,318l-3.33,1.92a1.16,1.16,0,0,0-.44,1.05v2.82l5.64,3.26,3.33-1.93v-2.82A3.1,3.1,0,0,0,256,319.81Z" style="fill:#37474f"/><path d="M252.62,321.74,249.56,320c-.71-.41-1.29,0-1.29,1v2.82l5.64,3.26v-2.82A3.1,3.1,0,0,0,252.62,321.74Z" style="fill:#263238"/><path d="M256,329.5,223.42,232l-6.1-3.52-3,1.76,30.64,91.62-27.59-15.93-3.05,1.76v3.52l37.07,21.4a1.1,1.1,0,0,0,1.11,0l3.06-1.76A1.13,1.13,0,0,0,256,329.5Z" style="fill:#37474f"/><polygon points="256.03 329.5 252.63 319.54 249.28 309.56 242.6 289.6 236.03 269.6 232.75 259.6 223.42 231.98 232.92 259.54 236.27 269.52 242.95 289.48 249.52 309.48 252.8 319.48 256.03 329.5" style="fill:#263238"/><path d="M251.35,332.6l-13.48-7.79-23.59-13.62v-3.52l23.89,13.79,7.1,4.1A.48.48,0,0,0,246,325l-3.48-10.5-28.2-84.27,5.73,2.43,27,80.72L253,331.26A1.13,1.13,0,0,1,251.35,332.6Z" style="fill:#455a64"/><path d="M242.48,314.49l-11.14-33.3c-3.65-11.13-13.46-39.83-17.06-51C218,241.31,227.8,270,231.52,281.13Z" style="fill:#263238"/><path d="M251.35,332.6l-13.48-7.79a17.61,17.61,0,0,1,.3-3.35c.6-3.3,2.14-5.68,4.31-7a8.24,8.24,0,0,1,4.57-1.12L253,331.26A1.13,1.13,0,0,1,251.35,332.6Z" style="fill:#263238"/><path d="M245.26,315a1.75,1.75,0,0,1,.79,1.36c0,.5-.36.7-.79.45a1.72,1.72,0,0,1-.79-1.36C244.47,315,244.82,314.74,245.26,315Z" style="fill:#455a64"/><path d="M239.46,322.91a1.74,1.74,0,0,1,.78,1.36c0,.51-.35.71-.78.46a1.72,1.72,0,0,1-.79-1.36C238.67,322.86,239,322.66,239.46,322.91Z" style="fill:#455a64"/><path d="M283.57,204.87c-.94-2.85-5.94-5.05-14.42-6.33l-54.87,31.68,1,3.12c26-3.6,50.54-10,62.44-16.87,5.51-3.18,7.66-6.08,6.84-8.51C284.25,207,283.89,205.85,283.57,204.87Z" style="fill:#455a64"/><path d="M276.71,213.35c-11.89,6.87-36.43,13.27-62.43,16.87l54.87-31.68C284.86,200.9,288.65,206.47,276.71,213.35Z" style="fill:#37474f"/><path d="M269.87,202.46c7.57,1.28,9.61,3,10.05,3.49-.23.46-1.22,1.92-5.08,4.15-8,4.63-22.94,9.31-40.56,12.91Z" style="fill:#BA68C8"/><path d="M269.87,202.46c7.57,1.28,9.61,3,10.05,3.49-.23.46-1.22,1.92-5.08,4.15-8,4.63-22.94,9.31-40.56,12.91Z" style="fill:#fff;opacity:0.45"/><polygon points="276.1 202.79 243.39 221.68 245.38 222.82 278.09 203.94 276.1 202.79" style="fill:#37474f"/></g></g></svg>