<svg xmlns="http://www.w3.org/2000/svg" viewBox="286.78 147.89 119.78 267.1"><g id="freepik--character-2--inject-19"><g id="freepik--group--inject-19"><path d="M361.81,264.4S366,307.82,363.55,328c-2.59,21-7.9,74.21-7.9,74.21l-5.37.53s-7.7-51.53-4.35-72c2.2-13.39-10.39-74.92-10.39-74.92Z" style="fill:#ebb376"/><path d="M342.7,266.68s-2.61,41.87-6.21,61.85c-3.74,20.79-12,73.67-12,73.67l-5.38.22s-4.84-51.87-.36-72.12c2.94-13.25,2.28-69.61,2.28-69.61Z" style="fill:#ebb376"/><path d="M342.65,180.49a4.85,4.85,0,0,0,.37,3.11,6.31,6.31,0,0,0,2.45,1.81c-.76,1.47-3,2.17-3,2.17h-5.4s-2.44.54-3.36,0c-.77-.43-1.58-.84-2.3-1.33-.37-.25-1.09.38-1.44.07a8,8,0,0,0,2.91-3.67c.95-3-.07-13.48-.07-13.48l11.4,4.69s-.09.25-.22.68A34.73,34.73,0,0,0,342.65,180.49Z" style="fill:#ebb376"/><path d="M334.58,175.58s2.45,5.08,8.07,4.91a34.73,34.73,0,0,1,1.32-5.93l-.7-.25Z" style="isolation:isolate;opacity:0.2"/><path d="M315.05,188.77s.61,2.92,1.48,7.62c.8,4.3,1.83,10.07,2.81,16.46.17,1.14.37,2.3.56,3.48,0,0,0,0,0,0,1.46,8.68,3.33,18.14,3.72,26.35L361,240.77c.27-8.13,1.35-20.48.15-34.15a121.14,121.14,0,0,0-3.46-21.15s-1.36-.07-3.69-.1c-1.61,0-3.66,0-6.05,0-5.28.06-12.15.33-19.18,1.1-2,.22-3.94.47-5.89.78C320.23,187.65,317.58,188.16,315.05,188.77Z" style="fill:#ebb376"/><path d="M361.72,222.82h0c0,1.84-.07,3.61-.13,5.32-.08,2.33-.18,4.53-.28,6.57-.11,2.21-.21,4.23-.27,6.05l-37.42,1.92a123.08,123.08,0,0,0-1.53-13.41c-.24-1.59-.51-3.19-.78-4.77s-.6-3.44-.89-5.13c-.38-2.22-.75-4.41-1.08-6.53.21-.26.41-.52.61-.79a18.94,18.94,0,0,0,2.73-5.9,28.89,28.89,0,0,0,.9-4.79,47.37,47.37,0,0,0-.09-10.26c-.13-1.17-.28-2.18-.4-2.94-.07-.37-.12-.68-.17-.93,1.95-.31,3.93-.56,5.89-.78l.22.43a25.68,25.68,0,0,0,2.49,3.91,18.35,18.35,0,0,0,1.78,2h0a13,13,0,0,0,2.25,1.73,8.54,8.54,0,0,0,3.88,1.28,8.1,8.1,0,0,0,2.17-.15,8,8,0,0,0,2.85-1.13h0a7.36,7.36,0,0,0,3-4,12.41,12.41,0,0,0,.56-3.3,17.74,17.74,0,0,0,0-1.83c2.39,0,4.44,0,6.05,0,.51,2.12,1.36,5.68,2.12,8.86.46,1.9.89,3.66,1.18,4.88q0,.19.09.36a15.23,15.23,0,0,0,1.48,3.44c.67,1.22,1.49,2.51,2.28,3.71.09,1,.16,2,.22,3,.12,1.75.2,3.47.25,5.16C361.75,217.54,361.76,220.24,361.72,222.82Z" style="fill:#263238"/><path d="M316.53,196.39c.8,4.3,1.83,10.07,2.81,16.46.17,1.14.37,2.3.56,3.48,3.91-6.37,2.66-15.1-.56-18.26A5.75,5.75,0,0,0,316.53,196.39Z" style="isolation:isolate;opacity:0.2"/><path d="M316.85,295.59c.68-26.28,5.82-55.82,5.86-59.62h39c1.69,9.49,4.5,44.26,3.51,60.33Z" style="fill:#407BFF"/><path d="M347.48,413.67l1-4.75.18-8.56h7.16a1.75,1.75,0,0,1,2.86-1.17l1,7.91c1.81,1.62,6.07,3.33,11.73,4.57,1.26.28.86,3.32-2.22,3.32s-9.82-.23-12.05-.23c-3.63,0-5.73.18-8.62.22a1,1,0,0,1-.24,0A1.08,1.08,0,0,1,347.48,413.67Z" style="fill:#263238"/><path d="M314.88,413.67l1.05-4.75,1.58-8.56h7.17a1.75,1.75,0,0,1,2.85-1.17l-.42,7.91c1.81,1.62,6.07,3.33,11.73,4.57,1.26.28.86,3.32-2.22,3.32s-9.82-.23-12.06-.23c-3.62,0-5.72.18-8.61.22a1,1,0,0,1-.24,0A1.08,1.08,0,0,1,314.88,413.67Z" style="fill:#263238"/><path d="M295.57,250h-2.89c-3.25,0-5.9,3.34-5.9,7.46s2.65,7.46,5.9,7.46h2.89c3.26,0,5.9-3.34,5.9-7.46S298.83,250,295.57,250Z" style="fill:#263238"/><path d="M295.57,250h-2.89c-3.25,0-5.9,3.34-5.9,7.46s2.65,7.46,5.9,7.46h2.89c3.26,0,5.9-3.34,5.9-7.46S298.83,250,295.57,250Z" style="fill:#fff;isolation:isolate;opacity:0.1"/><path d="M301.47,257.5c0,4.12-2.64,7.46-5.9,7.46s-5.9-3.34-5.9-7.46,2.64-7.46,5.9-7.46S301.47,253.38,301.47,257.5Z" style="fill:#fff;isolation:isolate;opacity:0.2"/><path d="M307.35,254.6H296.62c-1.27,0-2.29,1.3-2.29,2.9s1,2.9,2.29,2.9h10.73a3,3,0,0,0,0-5.8Z" style="fill:#263238"/><path d="M320.45,187.83s-6.47-2.89-10.46,0-5.82,12.45-5.82,12.45-4.69,16-6,18.64.05,29.36.05,29.36l4.94.25s5.4-16.88,2.68-25.89c-.54-1.8,7.4-3.18,12.25-17.65,0,0,3.17-5.72,3.53-9.71A16.78,16.78,0,0,0,320.45,187.83Z" style="fill:#ebb376"/><path d="M298.2,248.28s-3.94,8.43-3.87,10.33,9,3.38,9,3.38,2.34-8.22,1.69-9.27-1.77-6.85-1.77-6.85Z" style="fill:#ebb376"/><path d="M311,250h-2.89c-3.26,0-5.9,3.34-5.9,7.46s2.64,7.46,5.9,7.46H311c3.26,0,5.9-3.34,5.9-7.46S314.21,250,311,250Z" style="fill:#263238"/><path d="M311,250h-2.89c-3.26,0-5.9,3.34-5.9,7.46s2.64,7.46,5.9,7.46H311c3.26,0,5.9-3.34,5.9-7.46S314.21,250,311,250Z" style="fill:#fff;isolation:isolate;opacity:0.1"/><ellipse cx="310.95" cy="257.5" rx="5.9" ry="7.46" style="fill:#fff;isolation:isolate;opacity:0.2"/><path d="M397.92,183.09l2.88-.05c3.26-.07,5.84-3.46,5.76-7.57s-2.79-7.41-6.05-7.35l-2.88.06c-3.26.06-5.84,3.45-5.76,7.57S394.66,183.16,397.92,183.09Z" style="fill:#263238"/><path d="M397.92,183.09l2.88-.05c3.26-.07,5.84-3.46,5.76-7.57s-2.79-7.41-6.05-7.35l-2.88.06c-3.26.06-5.84,3.45-5.76,7.57S394.66,183.16,397.92,183.09Z" style="fill:#fff;isolation:isolate;opacity:0.1"/><path d="M391.87,175.75c-.08-4.12,2.5-7.51,5.76-7.57s6,3.22,6,7.34-2.49,7.51-5.75,7.57S392,179.87,391.87,175.75Z" style="fill:#fff;isolation:isolate;opacity:0.2"/><path d="M386.05,178.76l10.73-.21c1.26,0,2.27-1.34,2.23-2.94s-1.08-2.88-2.35-2.85l-10.73.21c-1.26,0-2.26,1.34-2.23,2.94S384.78,178.79,386.05,178.76Z" style="fill:#263238"/><path d="M395.32,184.91s3.78-8.51,3.67-10.41-9.09-3.19-9.09-3.19-2.18,8.26-1.51,9.3,1.9,6.81,1.9,6.81Z" style="fill:#ebb376"/><path d="M382.54,183.39l2.89,0c3.25-.07,5.83-3.46,5.75-7.57s-2.79-7.41-6.05-7.35l-2.88.06c-3.26.06-5.83,3.45-5.75,7.57S379.28,183.46,382.54,183.39Z" style="fill:#263238"/><path d="M382.54,183.39l2.89,0c3.25-.07,5.83-3.46,5.75-7.57s-2.79-7.41-6.05-7.35l-2.88.06c-3.26.06-5.83,3.45-5.75,7.57S379.28,183.46,382.54,183.39Z" style="fill:#fff;isolation:isolate;opacity:0.1"/><path d="M376.5,176.05c-.08-4.12,2.49-7.51,5.75-7.57s6,3.22,6.05,7.34-2.5,7.51-5.76,7.57S376.58,180.17,376.5,176.05Z" style="fill:#fff;isolation:isolate;opacity:0.2"/><path d="M357.73,185.47s5.9-4.58,9.73-2.68,5,7.23,5,7.23a23.09,23.09,0,0,0,5.52,3.42c2.85,1.14,3.8,4.56,3.8,4.56l1.9,3.42c.2-4.23,6.84-18.44,6.84-18.44l5.14,1s-4.95,24.73-8.75,27.57-17.87-5.8-25.12-12.22l-2.26.81Z" style="fill:#ebb376"/><path d="M341.13,295.94l2.51-20.46L351.35,265l-5.11,12.3s2.94,11.84,2.94,18.68Z" style="isolation:isolate;opacity:0.2"/><path d="M350.62,154s3.39,9.91-1.81,13.3-4.34-14.23-4.34-14.23Z" style="fill:#263238"/><path d="M333.84,174.1a8.63,8.63,0,0,0,9.71,3.82,9.59,9.59,0,0,0,5.68-4.18c.18-.28.34-.58.5-.89,2.76-5.67,4-15.75-1.88-19.85a9.32,9.32,0,0,0-13,2.29,9.2,9.2,0,0,0-1.6,4C332.18,166.05,331.23,170,333.84,174.1Z" style="fill:#ebb376"/><path d="M343,163.42a.85.85,0,0,0,.43,1.12c.36.08.73-.3.86-.84s-.08-1-.43-1.12S343.08,162.88,343,163.42Z" style="fill:#263238"/><path d="M349.08,164.78c-.16.53.07,1.05.42,1.12s.74-.3.86-.84-.07-1-.42-1.12S349.19,164.27,349.08,164.78Z" style="fill:#263238"/><path d="M347.07,164.62a19.81,19.81,0,0,0,1.56,5.21,3.21,3.21,0,0,1-2.71-.1Z" style="fill:#d58745"/><path d="M342.26,161a.34.34,0,0,0,.34,0,2.61,2.61,0,0,1,2.33-.34.31.31,0,0,0,.42-.16.33.33,0,0,0-.16-.43h0a3.21,3.21,0,0,0-2.94.38.32.32,0,0,0-.1.45h0A.32.32,0,0,0,342.26,161Z" style="fill:#263238"/><path d="M351.93,162.5a.24.24,0,0,0,.18-.05.33.33,0,0,0,0-.46h0a3.19,3.19,0,0,0-2.82-.94.32.32,0,0,0-.25.38h0a.33.33,0,0,0,.39.25h0a2.59,2.59,0,0,1,2.22.78A.34.34,0,0,0,351.93,162.5Z" style="fill:#263238"/><path d="M351.29,168.72c0,.07-.07.15-.11.22a10.34,10.34,0,0,1-2.69,3.27c-1.24-2.42-4.39-1.91-4.39-1.91a4.27,4.27,0,0,0-2.12-2.09c-1.37-.45-5.34-1.09-5.34-1.09-.64-.62-.65-2.1-.54-3.23a12.09,12.09,0,0,1,.19-1.44l-.91.47s-.07.21-.18.57h0c-.1.37-.26.89-.43,1.55h0c-.26.94-.54,2.11-.78,3.36a29.74,29.74,0,0,0-.49,3.37h0c0,.53-.07,1.07-.07,1.56h0a10.93,10.93,0,0,0,.16,1.79h0v0a3.86,3.86,0,0,0,.81,1.84,10.68,10.68,0,0,0,3.59,2.46c.24.11.48.2.72.29,2.71.95,5.85.93,8.22-1.1C350.83,175.34,351.29,168.72,351.29,168.72Zm-11.12.26a5.2,5.2,0,0,1,3.63,1.71s3.85.47,3.34,3.59-3.71,3.25-4.69,2.13c-.83-.95.07-1.87.37-2.13l.08-.07-1.21-.74a.64.64,0,0,1-.1.13,2.42,2.42,0,0,1-4.13-.09l-.08-.12a3,3,0,0,1-.25-.62h0A3.12,3.12,0,0,1,340.17,169Z" style="fill:#263238"/><path d="M346,172a21.72,21.72,0,0,0-1.42,2.79l-.53-.13c-2.42-.61-3.34-1.69-3.63-2.7a3.19,3.19,0,0,1,0-1.53,3.22,3.22,0,0,1,.28-.82,11.73,11.73,0,0,0,4.51,2.17C345.67,171.94,346,172,346,172Z" style="fill:#263238"/><path d="M345.17,171.79l-.44.81c-2.28-.57-3.81-1.29-4.35-2.16a3.22,3.22,0,0,1,.28-.82A11.73,11.73,0,0,0,345.17,171.79Z" style="fill:#fff"/><path d="M344,174.67c-2.42-.61-3.34-1.69-3.63-2.7a7.78,7.78,0,0,1,2.55,1.2A3,3,0,0,1,344,174.67Z" style="fill:#de5753"/><path d="M341.16,148.79c-7.12-.3-12.1,4.29-10.59,15.12.86,6.12,2.77,9,2.77,9-1.31-3-.6-8.64.36-8.74s.82,1,.82,1c2.18-1.21,4.6-4.92,3.73-7.48-2-6,5.34-6.5,7.13-4.26,0,0,3.72,2.37,5.24.53S347.75,145.52,341.16,148.79Z" style="fill:#263238"/><path d="M329.15,164.13a6.47,6.47,0,0,0,2.92,4c1.94,1.17,3.52-.43,3.49-2.58,0-1.92-1.08-4.9-3.29-5.17A2.89,2.89,0,0,0,329.15,164.13Z" style="fill:#ebb376"/><path d="M344.23,246.08a.28.28,0,0,1-.2-.1.25.25,0,0,1,.05-.35c1.28-1,1.8-4.12,2-5.71-.79,1.07-2.32,2.86-3.76,3.15a1.73,1.73,0,0,1-1.39-.26c-.9-.62-1-1.22-.85-1.62.33-1.23,2.75-2.17,6.31-2.44h.22c1,0,5,.1,6.06,1.68a1.69,1.69,0,0,1,.11,1.71,1.51,1.51,0,0,1-1.2,1.05c-1.39.19-3.29-1.65-4.43-2.92.64,1.66,1.78,4.39,2.71,5.39a.25.25,0,0,1,0,.35.25.25,0,0,1-.36,0c-1.06-1.14-2.31-4.24-2.93-5.87-.21,1.69-.77,4.84-2.17,5.9A.27.27,0,0,1,344.23,246.08Zm2.7-6.83c1.07,1.3,3.28,3.63,4.57,3.45a1.06,1.06,0,0,0,.81-.75,1.23,1.23,0,0,0-.06-1.24C351.47,239.57,348.51,239.28,346.93,239.25Zm-1,0c-3.4.34-5.13,1.24-5.35,2-.11.44.29.83.66,1.08a1.23,1.23,0,0,0,1,.18C343.64,242.3,345.25,240.21,345.9,239.29Z" style="fill:#fff"/><g style="opacity:0.1"><path d="M329.78,230.19c-1.57.19-2.91-.67-5.33-1a8.23,8.23,0,0,0-2.36.08c-.24-1.59-.51-3.19-.78-4.77,2.05-.73,5.09-1.7,6.11-1.44,1.58.39,2.76,3.36,4.74,3.36s5.55-.79,6.24,1S331.34,230,329.78,230.19Z" style="fill:#fff"/><path d="M361.59,228.15c-.08,2.33-.18,4.53-.28,6.57-1.13.11-2.38.2-3.58.21-3.56,0-3.21-1.18-6-2s-6.09.79-12.44,0,3.77-1.78,8.79-2.74,4.87-1.22,8.7-1.81A28.32,28.32,0,0,1,361.59,228.15Z" style="fill:#fff"/><path d="M361.72,222.82h0c-3.52.13-8.55.55-10.43.19-2.91-.55-3.52-1.69-6.87-2s-11.36.47-7.36-2.49c3.76-2.79,10.65-1.17,12-1s-.72,3.59,1.59,3.47,8.05.52,9,0,2.37-1.48,0-3.47-.43-2.76,2-2.78C361.75,217.54,361.76,220.24,361.72,222.82Z" style="fill:#fff"/><path d="M333.42,215.35c-4.42,0-4.22,3-6.6,2.19-1.1-.37-3.84.73-6.4,1.84-.38-2.22-.75-4.41-1.08-6.53.21-.26.41-.52.61-.79,2.14-.55,4.81-.91,6.48,0,3.16,1.71,3.55.52,5.73,1.12S337.84,215.35,333.42,215.35Z" style="fill:#fff"/><path d="M361.41,209.6c-.68.4-1.39.83-2,1.24-2,1.3-2-.24-3.7-.1a11.66,11.66,0,0,1-3,0c-1.68-.14-.55-1.06,0-1.45s2.49-1.06,1.56-1.45a11.22,11.22,0,0,0-6.19-.93c-3.16.4-7.79.4-6.93-.55s2.44-.9,4.34-1.43a37.11,37.11,0,0,1,5.86-.92c1.69-.21,5.27-.82,7.58-1.1.67,1.22,1.49,2.51,2.28,3.71C361.28,207.62,361.35,208.61,361.41,209.6Z" style="fill:#fff"/><path d="M335.54,201.64c.25,1.05-5.29,1.58-7.79,2.9s-2.38,2.33-4.35,1.82l-.72-.2a28.89,28.89,0,0,0,.9-4.79c2.52-.4,3.36.39,6.37.27C333.42,201.51,335.29,200.59,335.54,201.64Z" style="fill:#fff"/><path d="M338.46,209.1a1,1,0,0,1-.26-.35l-.15-.22,0,0,0-.06a4,4,0,0,1-1-.16.63.63,0,0,1-.43-.75,8.15,8.15,0,0,1-1.15-.22c-1.21-.4-1.23-.29-3.8,0a2.5,2.5,0,0,0-2.11,2.21c0,.76,4.09.16,6.42.14a7.41,7.41,0,0,0,2.58-.57Z" style="fill:#fff"/><path d="M357.34,199.11a22.78,22.78,0,0,1-3.88.94c-4,.59-7.51.8-6.19,0s.78-1.18,0-1.45-2.91.27-4.12,0a8.82,8.82,0,0,1-3.71-2.79,8.1,8.1,0,0,0,2.17-.15,8,8,0,0,0,2.85-1.13h0a26.44,26.44,0,0,0,8.21.12c1.37-.19,2.54-.33,3.48-.42C356.62,196.13,357.05,197.89,357.34,199.11Z" style="fill:#fff"/><path d="M331.52,190.8a6.34,6.34,0,0,1-2.46.29c-3.55-.27-4.42.17-5.57,0-.13-1.17-.28-2.18-.4-2.94,1.54-.43,4-.94,5.94-1.28A25.68,25.68,0,0,0,331.52,190.8Z" style="fill:#fff"/><path d="M351.29,187.42a4.57,4.57,0,0,1-3.82,3.07,12.41,12.41,0,0,0,.56-3.3C350,186.6,351.69,185.81,351.29,187.42Z" style="fill:#fff"/><path d="M334,196.38c.15.8-.67.64-1.8.76s-3.09-.65-4.71-.76-1-1.73,0-2,3-1,5.85-1.58h0a13,13,0,0,0,2.25,1.73C334.41,195.21,333.81,195.57,334,196.38Z" style="fill:#fff"/></g><path d="M347.48,413.67l1-4.75.18-8.56h7.16a1.75,1.75,0,0,1,2.86-1.17l1,7.91c1.81,1.62,6.07,3.33,11.73,4.57,1.26.28.86,3.32-2.22,3.32s-9.82-.23-12.05-.23c-3.63,0-5.73.18-8.62.22a1,1,0,0,1-.24,0A1.08,1.08,0,0,1,347.48,413.67Z" style="fill:#fff;opacity:0.6000000000000001"/><path d="M314.88,413.67l1.05-4.75,1.58-8.56h7.17a1.75,1.75,0,0,1,2.85-1.17l-.42,7.91c1.81,1.62,6.07,3.33,11.73,4.57,1.26.28.86,3.32-2.22,3.32s-9.82-.23-12.06-.23c-3.62,0-5.72.18-8.61.22a1,1,0,0,1-.24,0A1.08,1.08,0,0,1,314.88,413.67Z" style="fill:#fff;opacity:0.6000000000000001"/></g></g></svg>