<svg xmlns="http://www.w3.org/2000/svg" viewBox="178.16 136.84 117.55 279.17"><g id="freepik--Character--inject-33"><path d="M262,231.69s8.79,48.44,9.84,79.44c3.67,28.93,8.64,89.79,12.28,96.2,0,1.49-5.2,2.09-6.63,1.27,0,0-24.31-49.23-23.83-96.53-22.48-48.15-22.87-78.76-22.87-78.76Z" style="fill:#b55b52"/><path d="M264.47,376.78A109.86,109.86,0,0,1,279,373.45c.87.08,1.27,4.36,1.05,4.9,0,0-.1.09-.25.16.66,6.49,2.7,19.72,4.72,28.71,0,0-6.73,1.77-8.42,1.6-2.61-5.18-8.17-21.14-10.07-27l-.2,0A15.4,15.4,0,0,1,264.47,376.78Z" style="fill:#407BFF"/><path d="M264.47,376.78A109.86,109.86,0,0,1,279,373.45c.87.08,1.27,4.36,1.05,4.9,0,0-.1.09-.25.16.66,6.49,2.7,19.72,4.72,28.71,0,0-6.73,1.77-8.42,1.6-2.61-5.18-8.17-21.14-10.07-27l-.2,0A15.4,15.4,0,0,1,264.47,376.78Z" style="fill:#fff;opacity:0.5"/><path d="M254.75,233.36s-17.17,54.28-24.25,81c-7.43,28.07-17.77,75.37-17.12,94.31-1.63.85-4.58.8-7.74-.36,0,0-9.37-64,5-93.74-2.06-67.52,16.57-82.66,16.57-82.66Z" style="fill:#b55b52"/><path d="M202.49,373.59a109,109,0,0,1,14.93.6c.82.3.08,4.54-.27,5a.61.61,0,0,1-.28.09c-1.06,6.44-2.56,19.75-3,29,0,0-7-.06-8.54-.66C204.2,401.88,203,385,202.7,378.9a.84.84,0,0,1-.18-.07A15.43,15.43,0,0,1,202.49,373.59Z" style="fill:#407BFF"/><path d="M202.49,373.59a109,109,0,0,1,14.93.6c.82.3.08,4.54-.27,5a.61.61,0,0,1-.28.09c-1.06,6.44-2.56,19.75-3,29,0,0-7-.06-8.54-.66C204.2,401.88,203,385,202.7,378.9a.84.84,0,0,1-.18-.07A15.43,15.43,0,0,1,202.49,373.59Z" style="fill:#fff;opacity:0.5"/><path d="M221.51,416c-6.91,0-6.42-.1-10.31-.23-3.33-.12-4.09.29-6.77.23-2.23-.05-2.3-2.18-1.8-4.64.2-.94.49-2,.77-3.4a1.64,1.64,0,0,1,1.63-1.33h8.08a1.91,1.91,0,0,1,1.53.77,11.63,11.63,0,0,0,8,4.51C226.42,412.42,224.26,416,221.51,416Z" style="fill:#407BFF"/><path d="M292.55,416c-6.9,0-6.41-.1-10.3-.23-3.33-.12-4.1.29-6.77.23-2.24-.05-2.31-2.18-1.8-4.64.19-.94.49-2,.76-3.4a1.65,1.65,0,0,1,1.64-1.33h8.08a1.89,1.89,0,0,1,1.52.77,11.63,11.63,0,0,0,8,4.51C297.46,412.42,295.3,416,292.55,416Z" style="fill:#407BFF"/><path d="M267.87,278.13c-2.37,3.95-24.13,10.28-24.13,10.28l-.42-1.17-.34-.95L241.47,282l-1.7,4.4-.37,1-.39,1C214.23,282.6,215.26,270,215.26,270l-3.42,7.93-.16-.18a3,3,0,0,1-.67-1.42c-.42-2.16,1.24-4.66,1.24-4.66C214,253.54,219.7,242,223.55,236h0q.67-1,1.26-1.86a27.24,27.24,0,0,1,2.38-2.94l35.48.17L267,261.77s.21.79.47,2a.07.07,0,0,1,0,.05,57.9,57.9,0,0,1,1.15,7.64h0C268.86,274.16,268.73,276.7,267.87,278.13Z" style="fill:#263238"/><path d="M241.47,282l3.86-9.33s2.07,12.08-1.93,14.75Z" style="opacity:0.2"/><g style="opacity:0.7000000000000001"><path d="M239.77,286.44l-.37,1c-2.24-.35-13.74-2.55-21.16-11.53-1.57-1.9-2.29-4.75-2.42-8.07a38,38,0,0,0-4.14,9.9,3,3,0,0,1-.67-1.42,40.59,40.59,0,0,1,3.9-8.91,94.35,94.35,0,0,1,2.85-14.4A102.53,102.53,0,0,1,223.55,236h0q.67-1,1.26-1.86l.65.39a126.42,126.42,0,0,0-6.66,18.34c-2.2,8.73-3.27,18.13.2,22.33C226.54,284.33,238.39,286.24,239.77,286.44Z" style="fill:#fff"/></g><g style="opacity:0.7000000000000001"><path d="M268.67,271.5h0c-.25,3.06-1,5.83-2.66,7.14-4.11,3.22-19.17,7.6-22.69,8.59l-.34-.95c3.31-.94,18.47-5.34,22.42-8.43,2.72-2.14,2.59-9.17,2.12-14A57.9,57.9,0,0,1,268.67,271.5Z" style="fill:#fff"/></g><path d="M230.86,181.19c-.51-2.56-1.07-5.35-1.69-8s-1.25-5.38-2-8a130.18,130.18,0,0,0-5-15.48c-.23-.62-.53-1.25-.8-1.88l-.41-.94c-.22-.49-.1-.24,0-.08a.83.83,0,0,0,.31.26s.05,0,0-.05a3,3,0,0,0-.9-.37,15.87,15.87,0,0,0-3.25-.44c-1.23-.07-2.53-.06-3.85,0A159.53,159.53,0,0,0,197,148l-.1,0a2.81,2.81,0,0,1-1.5-5.37,82.83,82.83,0,0,1,17-5.15,31.53,31.53,0,0,1,9.91-.44,13.1,13.1,0,0,1,3.17.87,10.45,10.45,0,0,1,1.83,1,9.32,9.32,0,0,1,1.84,1.74,12.58,12.58,0,0,1,1.09,1.79l.51,1c.33.66.69,1.29,1,2a112.09,112.09,0,0,1,6.3,16.7c.82,2.83,1.59,5.66,2.23,8.52s1.27,5.66,1.74,8.7a5.64,5.64,0,0,1-11.1,2Z" style="fill:#b65b52"/><path d="M263.08,234.17l-40.64,3.66s1.92-6.14-5.85-17.73c-4-5.9-8.81-12.48-15-18a31.05,31.05,0,0,1,4.2-4.13c.47-.31,1-.64,1.51-1s1.09-.75,1.68-1.18c1.08-.76,2.24-1.62,3.46-2.57,5.36-4.21,12.11-10,15.33-17.56,1-2.42.59-6.27.59-6.27s8.51,1.1,16.27,13.42l.3.47c3.37,1.68,9.59,5.95,7.45,14C256,205.28,261.42,221.55,263.08,234.17Z" style="fill:#407BFF"/><path d="M211,208.2c-1.22,1.86-2.57,3.89-3.8,5.89s-2.48,4-3.68,6-2.33,4.08-3.44,6.13S198,230.4,197,232.49l.28-1a2.28,2.28,0,0,0-.23-1.18c-.18-.35-.37-.44-.34-.38a3.67,3.67,0,0,0,1.34.91,28.72,28.72,0,0,0,5.44,1.77c2,.49,4.11.88,6.24,1.24s4.31.68,6.42,1h.09a2.82,2.82,0,0,1,0,5.57c-2.35.35-4.61.51-6.94.64a61.8,61.8,0,0,1-7.06-.08,32.13,32.13,0,0,1-7.54-1.33,13.66,13.66,0,0,1-4.47-2.33,8.41,8.41,0,0,1-2.36-3,8.05,8.05,0,0,1-.63-4.45,4.24,4.24,0,0,1,.19-.8l.09-.24c.87-2.46,1.8-4.89,2.86-7.22s2.17-4.65,3.37-6.88,2.46-4.45,3.78-6.6,2.66-4.25,4.24-6.41a5.64,5.64,0,0,1,9.28,6.39Z" style="fill:#b65b52"/><path d="M231.76,196.17c-7.3,5.11-15.79-.67-19.36-3,.68-.54,1.39-1.11,2.1-1.7A55.41,55.41,0,0,0,225.81,179a33.74,33.74,0,0,0,1.92-3.41C232.72,180.8,239.1,191,231.76,196.17Z" style="fill:#b55b52"/><path d="M216.59,220.1c-.75-1.17-1.55-2.38-2.39-3.59-.34-.48-.69-1-1-1.46q-1.64-2.27-3.49-4.5a74,74,0,0,0-8.11-8.46,31.05,31.05,0,0,1,4.2-4.13c.47-.31,1-.64,1.51-1a26.77,26.77,0,0,1,6.54,8.27A25.71,25.71,0,0,1,216.59,220.1Z" style="fill:#b55b52"/><path d="M244.59,182.78a12.1,12.1,0,0,1-4-2.19c-.7-.59-1.42-1.22-2.16-1.86-3.43-3-7.61-6.1-10-6.86a34.72,34.72,0,0,0-1-6.07s8.51,4,15.42,14.24C243.38,180.9,244,181.81,244.59,182.78Z" style="fill:#b55b52"/><path d="M213.8,205.21a25.71,25.71,0,0,1,2.79,14.89c-.75-1.17-1.55-2.38-2.39-3.59A30.91,30.91,0,0,0,213.8,205.21Z" style="fill:#263238"/><path d="M227.73,175.63c5,5.17,11.37,15.41,4,20.54s-15.79-.67-19.36-3c.68-.54,1.39-1.11,2.1-1.7.95.8,2.2,1.87,3.52,3.08,5,3.15,14.57,1.44,15.08-7.3a6.38,6.38,0,0,0-2.85-5.57,44.39,44.39,0,0,0-4.44-2.66A33.74,33.74,0,0,0,227.73,175.63Z" style="fill:#263238"/><path d="M244.59,182.78a12.1,12.1,0,0,1-4-2.19c-.7-.59-1.42-1.22-2.16-1.86,1.61.52,3.12,1,4.35,1.31C243.38,180.9,244,181.81,244.59,182.78Z" style="fill:#263238"/><path d="M194.14,143.19l-6.3,2.47L195,150s4.54-2.65,4.42-6l-.7-.4A5.33,5.33,0,0,0,194.14,143.19Z" style="fill:#b55b52"/><polygon points="183.92 150.33 189.3 154.78 194.98 149.94 187.84 145.66 183.92 150.33" style="fill:#b55b52"/><path d="M228,182a18.59,18.59,0,0,1-3.12,12.2l-.18.26a3.09,3.09,0,0,1-5.56-2,5.77,5.77,0,0,0-1.19-3.55,12,12,0,0,0-4.75-3.4l-.61-8.2-.43-5.92c.74.88,1.64,1.87,2.62,2.89a47.18,47.18,0,0,0,4.06,3.75C221.94,180.55,225.29,182.43,228,182Z" style="fill:#b55b52"/><path d="M218,188.91a12,12,0,0,0-4.75-3.4l-.61-8.2c.8-1.15,1.57-2.19,2.19-3a47.18,47.18,0,0,0,4.06,3.75C219.9,181.56,220.39,185.94,218,188.91Z" style="opacity:0.2"/><path d="M202.85,158a14.3,14.3,0,0,0-1.06-3c-2.28-4.05-8.28-4.1-12-2.2A11.1,11.1,0,0,0,184,161.6c-1.39,10.57,6.94,20.82,3.86,28.28s-3.83,12.52.59,14.94a4.28,4.28,0,0,0,5.92-1.31,2.91,2.91,0,0,1-4.74-1.29c-1.16-2.48,2.2-6.77,4-9.25,6.53-9,8.17-17.68,4.5-25.47S202.82,158,202.85,158Z" style="fill:#263238"/><path d="M202.85,158s-.3-3.72-5.28-3-3.61,5.87-3.61,5.87l9.51-3" style="fill:#407BFF"/><path d="M187.59,165.71s1.2-9.49,13.81-9.57,16.49,15.5,14.62,19.38S186.4,177.07,187.59,165.71Z" style="fill:#263238"/><path d="M205,162.84c7.33,5.14,10.53,7.16,12.29,13.47,2.66,9.49-4.69,17.55-13.26,14.74-7.71-2.52-18.39-10.5-17.29-20A11.46,11.46,0,0,1,205,162.84Z" style="fill:#b55b52"/><path d="M196.09,167.1c7.71-1.83,10.15,10.22,13.89,1s-10.75-11.38-16.11-7.31S196.09,167.1,196.09,167.1Z" style="fill:#263238"/><path d="M194,160.83c4.94,3.62,6,5.14,2.27,9.32a6.19,6.19,0,0,0-3.3-2.59,6,6,0,0,1,1.77,4.08,21.44,21.44,0,0,0-3.08,3.48,6,6,0,0,0-2.26-1.31,5.54,5.54,0,0,1,1.4,2.85,15.12,15.12,0,0,0-1.22,4.73C183.8,178.75,182,166.19,194,160.83Z" style="fill:#263238"/><path d="M200.58,176.13c.63.4,1,1.07.73,1.49s-.93.43-1.56,0-1-1.08-.73-1.5S200,175.72,200.58,176.13Z" style="fill:#263238"/><path d="M196.38,184.09c.64.4,1,1.07.74,1.49s-.93.43-1.57,0-1-1.08-.73-1.5S195.75,183.68,196.38,184.09Z" style="fill:#263238"/><path d="M195,184l-1.28,1.26S195.3,185.18,195,184Z" style="fill:#263238"/><path d="M198.62,182.55a22.32,22.32,0,0,1,2.8,4.87c1.24-.35,1.67-2,1.67-2Z" style="fill:#a02724"/><path d="M207.44,183.21a6.87,6.87,0,0,1-.49,1.14.21.21,0,0,1-.29.07.25.25,0,0,1-.09-.31,6.27,6.27,0,0,0,.31-5.4.21.21,0,0,1,.08-.29.22.22,0,0,1,.29.11A6.51,6.51,0,0,1,207.44,183.21Z" style="fill:#263238"/><path d="M213.08,165.57a6.11,6.11,0,0,1,1.43,4.76c-.35,2.08-2.85,1.92-4.7.33-1.67-1.43-3.5-4.24-2.2-5.85S211.63,163.78,213.08,165.57Z" style="fill:#b55b52"/><path d="M198,172.19a.39.39,0,0,1-.24.23,3.17,3.17,0,0,0-2.17,2.14.41.41,0,0,1-.52.29.48.48,0,0,1-.31-.55,4,4,0,0,1,2.71-2.74.46.46,0,0,1,.55.3A.46.46,0,0,1,198,172.19Z" style="fill:#263238"/><path d="M191.66,184.16a.38.38,0,0,1-.22.23.42.42,0,0,1-.56-.24,4.6,4.6,0,0,1,0-4.07.39.39,0,0,1,.58-.12.47.47,0,0,1,.14.62,3.69,3.69,0,0,0,0,3.23A.43.43,0,0,1,191.66,184.16Z" style="fill:#263238"/><path d="M199.15,176l-1.28,1.26S199.49,177.22,199.15,176Z" style="fill:#263238"/><path d="M179.92,193.62a3.81,3.81,0,0,1-1.63-.35.24.24,0,0,1-.1-.34.24.24,0,0,1,.33-.1,3.58,3.58,0,0,0,2.79,0c1.68-.7,3-2.64,3.93-5.75,1.21-4-.19-8.85-1.54-13.51-1.4-4.82-2.85-9.79-1.38-13.86,2.89-8,14.73-6.92,14.85-6.91a.25.25,0,1,1,0,.5c-.11,0-11.57-1-14.33,6.58-1.41,3.91,0,8.59,1.39,13.55,1.37,4.74,2.8,9.63,1.54,13.8-1,3.26-2.4,5.3-4.22,6.07A4,4,0,0,1,179.92,193.62Z" style="fill:#263238"/><path d="M186.59,206.24a.25.25,0,0,1-.19-.09c-5.12-6.15-1.1-12.72,1.3-16.65.48-.77.89-1.45,1.17-2a.25.25,0,0,1,.33-.11.24.24,0,0,1,.11.34c-.28.58-.7,1.26-1.18,2-2.48,4.06-6.24,10.19-1.35,16.07a.25.25,0,0,1,0,.35A.27.27,0,0,1,186.59,206.24Z" style="fill:#263238"/><path d="M226.29,235.93l-2.14-1.79a3.21,3.21,0,0,0-2.89-.64l-4.73,1.23a6,6,0,0,0-4.12,3.7l-.43,1.13c3.34,3.2,9.31,4.2,9.31,4.2l1.66.47a2.69,2.69,0,0,0,3.39-1.79l1-3.29A3.09,3.09,0,0,0,226.29,235.93Z" style="fill:#b55b52"/><path d="M213.15,215.05c-1.09-1.51-3.61-4.65-3.61-4.65a10.25,10.25,0,0,1,2.36-1.88S214.16,212.67,213.15,215.05Z" style="opacity:0.2"/><polygon points="242.69 191.88 245.99 189.13 246.89 193.25 242.69 191.88" style="fill:#fff"/></g></svg>